<svg version="1" xmlns="http://www.w3.org/2000/svg" width="998.667" height="998.667" viewBox="0 0 749.000000 749.000000"><path d="M81.5.7C42 6.1 11.4 33.9 2.3 72.8.6 80.1.5 94.3.5 374.5s.1 294.4 1.8 301.7c9.1 38.7 39 66.3 77.7 71.7 6.5 1 77.3 1.2 300 .9l291.5-.3 8-2.3c10-2.8 23-8.9 30.9-14.6 7.1-5.1 17.8-16 22.5-22.9 5.1-7.5 10.9-20.6 13.3-30.3l2.3-8.9v-590l-2.2-8.8c-8-31.2-30.4-55.6-60.4-65.7-14.6-5-14.7-5-150.1-5H409.2l3.2 7.7c1.8 4.3 10.8 25.3 19.9 46.8 9.1 21.4 16.7 39.6 16.9 40.4.3 1.5-6.4 4.4-30.7 13.2-7.7 2.9-15.2 5.8-16.7 6.5L399 116l6 8.3c3.3 4.5 9.6 13.1 14 19.2 4.3 6 11.5 15.9 15.9 22 4.4 6 11.4 15.7 15.6 21.5 4.1 5.8 11 15.3 15.3 21.2 4.2 5.9 11.4 15.9 16 22.3s9 12.4 9.8 13.3c.7.9 4.7 6.4 8.8 12.2 4.1 5.8 11.1 15.4 15.5 21.5 4.4 6 11.1 15.3 14.8 20.5 3.6 5.2 7.7 10.8 9 12.4 1.5 1.8 2.1 3.2 1.5 3.8-.6.6-5.9 2.2-11.8 3.8-37.8 9.7-48.4 12.8-48.4 14.2 0 .6 2 4.7 4.4 9.2 2.4 4.5 9.2 17.5 15.1 29.1 5.9 11.5 13.1 25.5 16 31 2.9 5.5 9.9 19 15.5 30 5.7 11 13.1 25.4 16.5 32 14.1 27.1 19.7 37.9 29 56 10.5 20.4 20 38.7 30 58 19.4 37.3 25.6 49.7 25.1 50.2-.3.3-3.6-2.1-7.5-5.3-5.5-4.8-54.1-46.6-64.1-55.3-3.4-3-3.2-2.8-38.9-33.5-17.4-14.8-31.8-27.3-32.1-27.6-.3-.3-11.5-10-25-21.5s-24.7-21.2-25-21.5c-.7-.7-10.9-9.5-36.5-31.5-59.6-51.1-63.7-54.8-62.3-55.6.7-.4 13-3.6 27.3-7.2 36.5-9.2 47-11.8 47.3-12.2.1-.1-4.3-4.2-9.9-9.1-5.6-4.9-10.7-9.4-11.3-9.9-.6-.6-4.2-3.7-8.1-7-3.8-3.3-7.4-6.5-8-7.1-.5-.5-3.9-3.5-7.5-6.5-3.6-2.9-6.7-5.6-7-6-.3-.3-7.2-6.3-15.5-13.4-12.6-10.8-29.8-25.7-43-37.4-1.7-1.4-6.2-5.3-10-8.6-3.9-3.3-7.2-6.2-7.5-6.5-.3-.3-14-12.2-30.5-26.5s-31.1-27-32.5-28.3c-1.4-1.3-5.3-4.6-8.7-7.4-3.5-2.8-6.3-5.5-6.3-5.9 0-.5 3.3-1.8 7.3-3 25.5-7.6 35.9-10.6 57.9-17.1 13.6-3.9 24.5-7.5 24.2-8-.3-.4-7.4-6.8-15.7-14.1-8.4-7.3-15.9-14-16.7-14.8-.8-.8-4.7-4.1-8.5-7.4-3.9-3.3-7.5-6.4-8.1-7-4.8-4.4-42.3-37.4-79.4-70-10.7-9.4-24.1-21.2-29.9-26.3L130.6 0l-23.1.1c-12.6.1-24.3.4-26 .6zm146.1 104.2c7.4 5.6 41.9 36.7 41.7 37.7 0 .5-5.8 2.6-12.7 4.6l-12.6 3.7-4.3-1.9c-12.4-5.5-30.9-7-43.7-3.6-11.5 3.1-23.6 10.1-32.2 18.7-6.4 6.4-8.4 9.3-12.6 18-6.2 12.9-7.6 18.7-7.5 31.4.2 18.9 6.8 34.2 20.8 48.2 6.8 6.7 9.9 8.9 17.6 12.7 16.3 7.8 30.6 9.4 47.1 5.2 15.7-4 27.6-11.4 36.9-23 6.1-7.6 3.7-8.3 19.9 5.9 5.7 4.9 12.4 10.8 15 13 2.6 2.2 9.2 7.9 14.6 12.6 5.4 4.8 13.5 11.7 17.8 15.5 4.4 3.8 8.1 7.3 8.3 7.9.1.5-2 2.3-4.8 4-8.2 4.8-19.9 17.9-24.7 27.7-5.9 11.9-7.5 19.7-6.9 33.8.8 19.3 6.3 31.6 20.2 45.5 13.5 13.5 26.3 19.4 44.5 20.2 5.8.3 13.1 0 16.4-.6l5.8-1.1 13.7 11.8c7.5 6.5 24.6 21.2 38.1 32.8 13.5 11.6 25 21.7 25.7 22.5.9 1.2.9 2.4-.2 5.6-5.7 16.5-4.2 34.8 4.2 52.3 3.8 7.9 5.9 10.8 12.7 17.5 12.6 12.4 24.3 18.2 41.5 20.6 11.6 1.6 23-.3 35.3-5.8l7.7-3.5 13.8 11.9c7.6 6.5 17.6 15.2 22.3 19.2 4.7 4 8.6 7.7 8.8 8.1.5 1.2-13.5 7.8-20.3 9.5-5.2 1.3-32.2 1.5-221.2 1.5-154.2 0-216.7-.3-220.5-1.1-7.3-1.5-18.1-6.7-25.5-12.2-10.9-8.1-20.1-22.1-24-36.7-1.7-6.1-1.8-19.3-1.8-220.5 0-234-.4-219.3 6-233 10-21.7 29.5-36 52.5-38.4 4.1-.5 19.9-.9 35.1-1l27.6-.1 3.9 2.9zm367.9-.5c24 6.9 41.2 24 48.2 48.1 1.7 5.6 1.8 19.3 2.1 214 .2 134.4-.1 211.5-.7 218-1.1 10.1-4.7 23.4-6.1 21.8-.4-.4-4.3-7.8-8.7-16.3-27.6-53.4-25-47.6-25.7-57.2-.9-11.8-2.8-18.7-7.8-28.6-4.4-8.8-14.9-21.2-21.3-25.2-3.8-2.4-5.2-4.8-22.5-38.5-6.2-12.1-17-33-24-46.5-23.7-45.7-27.3-53-26.9-53.4.2-.3 14.4-4.2 31.4-8.7 17.1-4.5 31.4-8.6 31.9-9 .4-.4-5.5-9.4-13.3-20.1-7.7-10.6-14.1-19.5-14.1-19.8 0-.3 4.2-1.4 9.3-2.3 6.3-1.2 12.1-3.2 18.7-6.4 7.9-3.8 10.8-5.9 18-13.2 13.8-13.9 20.3-29.2 20.3-48.1.1-12.3-1.4-18.2-7.5-30.9-4.2-8.7-6.2-11.6-12.6-18-8.6-8.6-20.7-15.6-32.2-18.7-8.5-2.2-24.3-2.3-33-.1-18.9 4.9-36.9 19.1-44.6 35.4-2.1 4.5-4.1 8.2-4.4 8.2-.4 0-47.1-64.3-47.8-65.9-.1-.3 10.3-4.6 23.2-9.4 12.9-4.9 23.7-9.5 24-10.3.5-1.3 8.8-1.4 60.3-1.1 52.9.4 60.5.6 65.8 2.2z"/><path d="M198.5 467.5c-3.8.9-11.3 3.6-16.5 6.2-8 3.9-10.8 5.9-18 13.2-13.8 13.9-20.3 29.3-20.3 48.1-.1 12.3 1.4 18.2 7.4 30.8 4.2 8.6 6.2 11.5 12.7 18 15.2 15.2 36.9 23 56.3 20.3 17.2-2.4 28.9-8.2 41.5-20.6 6.8-6.7 8.9-9.6 12.7-17.5 10.6-22 9.9-45.5-2-66-4.9-8.3-16-19.4-24.3-24.3-14.3-8.3-33.8-11.5-49.5-8.2z"/></svg>